<mxfile host="app.diagrams.net" agent="Mozilla/5.0 (Windows NT 10.0; Win64; x64) AppleWebKit/537.36 (KHTML, like Gecko) Chrome/137.0.0.0 Safari/537.36" version="27.2.0">
  <diagram name="PaginÄƒ-1" id="tPUtxfRcci7yQtmyHBNP">
    <mxGraphModel dx="951" dy="443" grid="0" gridSize="10" guides="1" tooltips="1" connect="1" arrows="1" fold="1" page="1" pageScale="1" pageWidth="827" pageHeight="1169" math="0" shadow="0">
      <root>
        <mxCell id="0" />
        <mxCell id="1" parent="0" />
        <mxCell id="e-eenU64WSXm0HByO18V-1" value="OBC" style="rounded=1;whiteSpace=wrap;html=1;" parent="1" vertex="1">
          <mxGeometry x="40" y="130" width="60" height="290" as="geometry" />
        </mxCell>
        <mxCell id="e-eenU64WSXm0HByO18V-2" value="" style="rounded=1;whiteSpace=wrap;html=1;" parent="1" vertex="1">
          <mxGeometry x="160" y="130" width="440" height="290" as="geometry" />
        </mxCell>
        <mxCell id="e-eenU64WSXm0HByO18V-3" value="FPGA" style="rounded=1;whiteSpace=wrap;html=1;" parent="1" vertex="1">
          <mxGeometry x="660" y="130" width="80" height="290" as="geometry" />
        </mxCell>
        <mxCell id="e-eenU64WSXm0HByO18V-4" value="MCU" style="text;strokeColor=none;align=center;fillColor=none;html=1;verticalAlign=middle;whiteSpace=wrap;rounded=0;" parent="1" vertex="1">
          <mxGeometry x="340" y="140" width="60" height="30" as="geometry" />
        </mxCell>
        <mxCell id="e-eenU64WSXm0HByO18V-6" value="PUS 8&amp;nbsp;&lt;div&gt;Task&lt;/div&gt;" style="rounded=1;whiteSpace=wrap;html=1;" parent="1" vertex="1">
          <mxGeometry x="390" y="195" width="110" height="52.5" as="geometry" />
        </mxCell>
        <mxCell id="e-eenU64WSXm0HByO18V-7" value="UART&amp;nbsp;&lt;div&gt;Controller 2&lt;/div&gt;" style="rounded=1;whiteSpace=wrap;html=1;" parent="1" vertex="1">
          <mxGeometry x="180" y="175" width="60" height="200" as="geometry" />
        </mxCell>
        <mxCell id="e-eenU64WSXm0HByO18V-8" value="UART&amp;nbsp;&lt;div&gt;Controller&amp;nbsp;&lt;/div&gt;&lt;div&gt;1&lt;/div&gt;" style="rounded=1;whiteSpace=wrap;html=1;" parent="1" vertex="1">
          <mxGeometry x="520" y="175" width="60" height="205" as="geometry" />
        </mxCell>
        <mxCell id="e-eenU64WSXm0HByO18V-10" value="UART_IN_OBC&lt;div&gt;Task&lt;/div&gt;" style="rounded=1;whiteSpace=wrap;html=1;" parent="1" vertex="1">
          <mxGeometry x="260" y="195" width="110" height="52.5" as="geometry" />
        </mxCell>
        <mxCell id="e-eenU64WSXm0HByO18V-13" value="" style="endArrow=classic;html=1;rounded=0;exitX=1;exitY=0.5;exitDx=0;exitDy=0;entryX=0;entryY=0.5;entryDx=0;entryDy=0;strokeColor=#FF0000;" parent="1" source="e-eenU64WSXm0HByO18V-10" target="e-eenU64WSXm0HByO18V-6" edge="1">
          <mxGeometry width="50" height="50" relative="1" as="geometry">
            <mxPoint x="280" y="310" as="sourcePoint" />
            <mxPoint x="330" y="260" as="targetPoint" />
          </mxGeometry>
        </mxCell>
        <mxCell id="e-eenU64WSXm0HByO18V-22" value="UART_IN_FPGA&lt;div&gt;Task&lt;/div&gt;" style="rounded=1;whiteSpace=wrap;html=1;" parent="1" vertex="1">
          <mxGeometry x="390" y="310" width="110" height="52.5" as="geometry" />
        </mxCell>
        <mxCell id="e-eenU64WSXm0HByO18V-23" value="UART_OUT_OBC&lt;div&gt;Task&lt;/div&gt;" style="rounded=1;whiteSpace=wrap;html=1;" parent="1" vertex="1">
          <mxGeometry x="260" y="310" width="110" height="52.5" as="geometry" />
        </mxCell>
        <mxCell id="e-eenU64WSXm0HByO18V-24" value="" style="endArrow=classic;html=1;rounded=0;exitX=1;exitY=0.25;exitDx=0;exitDy=0;entryX=0.028;entryY=0.138;entryDx=0;entryDy=0;entryPerimeter=0;fillColor=#FF0000;strokeColor=#FF0000;" parent="1" source="e-eenU64WSXm0HByO18V-1" target="e-eenU64WSXm0HByO18V-7" edge="1">
          <mxGeometry width="50" height="50" relative="1" as="geometry">
            <mxPoint x="260" y="320" as="sourcePoint" />
            <mxPoint x="310" y="270" as="targetPoint" />
          </mxGeometry>
        </mxCell>
        <mxCell id="e-eenU64WSXm0HByO18V-25" value="" style="endArrow=classic;html=1;rounded=0;entryX=0.993;entryY=0.669;entryDx=0;entryDy=0;entryPerimeter=0;strokeColor=#80FF00;" parent="1" target="e-eenU64WSXm0HByO18V-1" edge="1">
          <mxGeometry width="50" height="50" relative="1" as="geometry">
            <mxPoint x="180" y="324" as="sourcePoint" />
            <mxPoint x="310" y="270" as="targetPoint" />
          </mxGeometry>
        </mxCell>
        <mxCell id="e-eenU64WSXm0HByO18V-26" value="" style="endArrow=classic;html=1;rounded=0;exitX=1;exitY=0.233;exitDx=0;exitDy=0;entryX=0;entryY=0.5;entryDx=0;entryDy=0;fillColor=#FF0000;strokeColor=#FF0000;exitPerimeter=0;" parent="1" source="e-eenU64WSXm0HByO18V-7" target="e-eenU64WSXm0HByO18V-10" edge="1">
          <mxGeometry width="50" height="50" relative="1" as="geometry">
            <mxPoint x="120" y="200" as="sourcePoint" />
            <mxPoint x="202" y="200" as="targetPoint" />
          </mxGeometry>
        </mxCell>
        <mxCell id="e-eenU64WSXm0HByO18V-27" value="" style="endArrow=classic;html=1;rounded=0;exitX=1;exitY=0.5;exitDx=0;exitDy=0;entryX=0;entryY=0.225;entryDx=0;entryDy=0;strokeColor=#FF0000;entryPerimeter=0;" parent="1" source="e-eenU64WSXm0HByO18V-6" target="e-eenU64WSXm0HByO18V-8" edge="1">
          <mxGeometry width="50" height="50" relative="1" as="geometry">
            <mxPoint x="380" y="230" as="sourcePoint" />
            <mxPoint x="400" y="230" as="targetPoint" />
          </mxGeometry>
        </mxCell>
        <mxCell id="e-eenU64WSXm0HByO18V-29" value="" style="endArrow=classic;html=1;rounded=0;exitX=1;exitY=0.25;exitDx=0;exitDy=0;entryX=0.01;entryY=0.331;entryDx=0;entryDy=0;strokeColor=#FF0000;entryPerimeter=0;" parent="1" source="e-eenU64WSXm0HByO18V-8" target="e-eenU64WSXm0HByO18V-3" edge="1">
          <mxGeometry width="50" height="50" relative="1" as="geometry">
            <mxPoint x="500" y="250" as="sourcePoint" />
            <mxPoint x="520" y="250" as="targetPoint" />
          </mxGeometry>
        </mxCell>
        <mxCell id="e-eenU64WSXm0HByO18V-30" value="" style="endArrow=classic;html=1;rounded=0;entryX=0.999;entryY=0.807;entryDx=0;entryDy=0;entryPerimeter=0;strokeColor=#80FF00;exitX=0;exitY=0.5;exitDx=0;exitDy=0;" parent="1" source="e-eenU64WSXm0HByO18V-23" target="e-eenU64WSXm0HByO18V-7" edge="1">
          <mxGeometry width="50" height="50" relative="1" as="geometry">
            <mxPoint x="220" y="320" as="sourcePoint" />
            <mxPoint x="140" y="320" as="targetPoint" />
          </mxGeometry>
        </mxCell>
        <mxCell id="e-eenU64WSXm0HByO18V-31" value="" style="endArrow=classic;html=1;rounded=0;entryX=1.019;entryY=0.808;entryDx=0;entryDy=0;entryPerimeter=0;strokeColor=#80FF00;exitX=0;exitY=0.5;exitDx=0;exitDy=0;" parent="1" source="e-eenU64WSXm0HByO18V-22" edge="1">
          <mxGeometry width="50" height="50" relative="1" as="geometry">
            <mxPoint x="389" y="335.75" as="sourcePoint" />
            <mxPoint x="370" y="336.75" as="targetPoint" />
          </mxGeometry>
        </mxCell>
        <mxCell id="e-eenU64WSXm0HByO18V-32" value="" style="endArrow=classic;html=1;rounded=0;entryX=1;entryY=0.5;entryDx=0;entryDy=0;strokeColor=#80FF00;exitX=0;exitY=0.5;exitDx=0;exitDy=0;" parent="1" target="e-eenU64WSXm0HByO18V-22" edge="1">
          <mxGeometry width="50" height="50" relative="1" as="geometry">
            <mxPoint x="520" y="335.75" as="sourcePoint" />
            <mxPoint x="501" y="336.75" as="targetPoint" />
          </mxGeometry>
        </mxCell>
        <mxCell id="e-eenU64WSXm0HByO18V-34" value="" style="endArrow=classic;html=1;rounded=0;entryX=1;entryY=0.75;entryDx=0;entryDy=0;strokeColor=#80FF00;exitX=0.013;exitY=0.682;exitDx=0;exitDy=0;exitPerimeter=0;" parent="1" source="e-eenU64WSXm0HByO18V-3" target="e-eenU64WSXm0HByO18V-8" edge="1">
          <mxGeometry width="50" height="50" relative="1" as="geometry">
            <mxPoint x="629" y="310" as="sourcePoint" />
            <mxPoint x="610" y="311" as="targetPoint" />
          </mxGeometry>
        </mxCell>
        <mxCell id="e-eenU64WSXm0HByO18V-36" value="" style="endArrow=classic;html=1;rounded=0;strokeColor=#80FF00;" parent="1" edge="1">
          <mxGeometry width="50" height="50" relative="1" as="geometry">
            <mxPoint x="325" y="90" as="sourcePoint" />
            <mxPoint x="295" y="90" as="targetPoint" />
          </mxGeometry>
        </mxCell>
        <mxCell id="e-eenU64WSXm0HByO18V-38" value="" style="endArrow=classic;html=1;rounded=0;strokeColor=#FF0000;" parent="1" edge="1">
          <mxGeometry width="50" height="50" relative="1" as="geometry">
            <mxPoint x="455" y="90" as="sourcePoint" />
            <mxPoint x="485" y="90" as="targetPoint" />
          </mxGeometry>
        </mxCell>
        <mxCell id="e-eenU64WSXm0HByO18V-39" value="FPGA -&amp;gt; MCU-&amp;gt; OBC" style="text;strokeColor=none;align=center;fillColor=none;html=1;verticalAlign=middle;whiteSpace=wrap;rounded=0;" parent="1" vertex="1">
          <mxGeometry x="240" y="70" width="140" height="10" as="geometry" />
        </mxCell>
        <mxCell id="e-eenU64WSXm0HByO18V-40" value="OBC-&amp;gt;MCU-&amp;gt;FPGA" style="text;strokeColor=none;align=center;fillColor=none;html=1;verticalAlign=middle;whiteSpace=wrap;rounded=0;" parent="1" vertex="1">
          <mxGeometry x="400" y="70" width="140" height="10" as="geometry" />
        </mxCell>
        <mxCell id="e-eenU64WSXm0HByO18V-42" value="OBC" style="rounded=1;whiteSpace=wrap;html=1;" parent="1" vertex="1">
          <mxGeometry x="50" y="550" width="60" height="290" as="geometry" />
        </mxCell>
        <mxCell id="e-eenU64WSXm0HByO18V-43" value="" style="rounded=1;whiteSpace=wrap;html=1;" parent="1" vertex="1">
          <mxGeometry x="170" y="550" width="440" height="290" as="geometry" />
        </mxCell>
        <mxCell id="e-eenU64WSXm0HByO18V-44" value="FPGA" style="rounded=1;whiteSpace=wrap;html=1;" parent="1" vertex="1">
          <mxGeometry x="670" y="550" width="80" height="290" as="geometry" />
        </mxCell>
        <mxCell id="e-eenU64WSXm0HByO18V-45" value="MCU" style="text;strokeColor=none;align=center;fillColor=none;html=1;verticalAlign=middle;whiteSpace=wrap;rounded=0;" parent="1" vertex="1">
          <mxGeometry x="350" y="560" width="60" height="30" as="geometry" />
        </mxCell>
        <mxCell id="e-eenU64WSXm0HByO18V-47" value="UART&amp;nbsp;&lt;div&gt;Controller 2&lt;/div&gt;" style="rounded=1;whiteSpace=wrap;html=1;" parent="1" vertex="1">
          <mxGeometry x="190" y="595" width="60" height="200" as="geometry" />
        </mxCell>
        <mxCell id="e-eenU64WSXm0HByO18V-48" value="UART&amp;nbsp;&lt;div&gt;Controller&amp;nbsp;&lt;/div&gt;&lt;div&gt;1&lt;/div&gt;" style="rounded=1;whiteSpace=wrap;html=1;" parent="1" vertex="1">
          <mxGeometry x="530" y="595" width="60" height="205" as="geometry" />
        </mxCell>
        <mxCell id="e-eenU64WSXm0HByO18V-51" value="UART_IN_FPGA&lt;div&gt;Task&lt;/div&gt;" style="rounded=1;whiteSpace=wrap;html=1;" parent="1" vertex="1">
          <mxGeometry x="394" y="736" width="110" height="52.5" as="geometry" />
        </mxCell>
        <mxCell id="e-eenU64WSXm0HByO18V-52" value="UART_OUT_OBC&lt;div&gt;Task&lt;/div&gt;" style="rounded=1;whiteSpace=wrap;html=1;" parent="1" vertex="1">
          <mxGeometry x="268" y="736" width="110" height="52.5" as="geometry" />
        </mxCell>
        <mxCell id="e-eenU64WSXm0HByO18V-54" value="" style="endArrow=classic;html=1;rounded=0;entryX=0.993;entryY=0.669;entryDx=0;entryDy=0;entryPerimeter=0;strokeColor=#80FF00;" parent="1" target="e-eenU64WSXm0HByO18V-42" edge="1">
          <mxGeometry width="50" height="50" relative="1" as="geometry">
            <mxPoint x="190" y="744" as="sourcePoint" />
            <mxPoint x="320" y="690" as="targetPoint" />
          </mxGeometry>
        </mxCell>
        <mxCell id="e-eenU64WSXm0HByO18V-58" value="" style="endArrow=classic;html=1;rounded=0;entryX=1.013;entryY=0.838;entryDx=0;entryDy=0;entryPerimeter=0;strokeColor=#80FF00;exitX=0;exitY=0.5;exitDx=0;exitDy=0;" parent="1" source="e-eenU64WSXm0HByO18V-52" target="e-eenU64WSXm0HByO18V-47" edge="1">
          <mxGeometry width="50" height="50" relative="1" as="geometry">
            <mxPoint x="230" y="740" as="sourcePoint" />
            <mxPoint x="150" y="740" as="targetPoint" />
          </mxGeometry>
        </mxCell>
        <mxCell id="e-eenU64WSXm0HByO18V-60" value="" style="endArrow=classic;html=1;rounded=0;entryX=1;entryY=0.5;entryDx=0;entryDy=0;strokeColor=#80FF00;exitX=0.017;exitY=0.816;exitDx=0;exitDy=0;exitPerimeter=0;" parent="1" source="e-eenU64WSXm0HByO18V-48" target="e-eenU64WSXm0HByO18V-51" edge="1">
          <mxGeometry width="50" height="50" relative="1" as="geometry">
            <mxPoint x="530" y="755.75" as="sourcePoint" />
            <mxPoint x="511" y="756.75" as="targetPoint" />
          </mxGeometry>
        </mxCell>
        <mxCell id="e-eenU64WSXm0HByO18V-61" value="" style="endArrow=classic;html=1;rounded=0;entryX=1;entryY=0.75;entryDx=0;entryDy=0;strokeColor=#80FF00;exitX=0.013;exitY=0.682;exitDx=0;exitDy=0;exitPerimeter=0;" parent="1" source="e-eenU64WSXm0HByO18V-44" target="e-eenU64WSXm0HByO18V-48" edge="1">
          <mxGeometry width="50" height="50" relative="1" as="geometry">
            <mxPoint x="639" y="730" as="sourcePoint" />
            <mxPoint x="620" y="731" as="targetPoint" />
          </mxGeometry>
        </mxCell>
        <mxCell id="e-eenU64WSXm0HByO18V-62" value="" style="endArrow=classic;html=1;rounded=0;strokeColor=#80FF00;" parent="1" edge="1">
          <mxGeometry width="50" height="50" relative="1" as="geometry">
            <mxPoint x="405" y="520" as="sourcePoint" />
            <mxPoint x="375" y="520" as="targetPoint" />
          </mxGeometry>
        </mxCell>
        <mxCell id="e-eenU64WSXm0HByO18V-64" value="FPGA -&amp;gt; MCU-&amp;gt; OBC" style="text;strokeColor=none;align=center;fillColor=none;html=1;verticalAlign=middle;whiteSpace=wrap;rounded=0;" parent="1" vertex="1">
          <mxGeometry x="320" y="500" width="140" height="10" as="geometry" />
        </mxCell>
        <mxCell id="e-eenU64WSXm0HByO18V-66" value="&lt;div&gt;&lt;br&gt;&lt;/div&gt;Buffer&lt;div&gt;1&lt;/div&gt;" style="strokeWidth=2;html=1;shape=mxgraph.flowchart.database;whiteSpace=wrap;" parent="1" vertex="1">
          <mxGeometry x="320" y="621" width="60" height="60" as="geometry" />
        </mxCell>
        <mxCell id="e-eenU64WSXm0HByO18V-73" value="&lt;div&gt;&lt;br&gt;&lt;/div&gt;Buffer&lt;div&gt;2&lt;/div&gt;" style="strokeWidth=2;html=1;shape=mxgraph.flowchart.database;whiteSpace=wrap;" parent="1" vertex="1">
          <mxGeometry x="394" y="621" width="60" height="60" as="geometry" />
        </mxCell>
        <mxCell id="e-eenU64WSXm0HByO18V-76" value="" style="shape=image;html=1;verticalAlign=top;verticalLabelPosition=bottom;labelBackgroundColor=#ffffff;imageAspect=0;aspect=fixed;image=https://cdn4.iconfinder.com/data/icons/arrow-332/64/icon_Curved_Returing_Arrow_--128.png;direction=south;" parent="1" vertex="1">
          <mxGeometry x="372" y="672" width="25" height="25" as="geometry" />
        </mxCell>
        <mxCell id="e-eenU64WSXm0HByO18V-77" value="" style="shape=image;html=1;verticalAlign=top;verticalLabelPosition=bottom;labelBackgroundColor=#ffffff;imageAspect=0;aspect=fixed;image=https://cdn4.iconfinder.com/data/icons/arrow-332/64/icon_Curved_Returing_Arrow_--128.png;direction=north;" parent="1" vertex="1">
          <mxGeometry x="375" y="610" width="25" height="25" as="geometry" />
        </mxCell>
        <mxCell id="e-eenU64WSXm0HByO18V-78" value="" style="endArrow=classic;html=1;rounded=0;exitX=0.75;exitY=0;exitDx=0;exitDy=0;entryX=1;entryY=0.5;entryDx=0;entryDy=0;entryPerimeter=0;strokeColor=#80FF00;" parent="1" source="e-eenU64WSXm0HByO18V-51" target="e-eenU64WSXm0HByO18V-73" edge="1">
          <mxGeometry width="50" height="50" relative="1" as="geometry">
            <mxPoint x="361" y="686" as="sourcePoint" />
            <mxPoint x="411" y="636" as="targetPoint" />
            <Array as="points">
              <mxPoint x="477" y="651" />
            </Array>
          </mxGeometry>
        </mxCell>
        <mxCell id="e-eenU64WSXm0HByO18V-79" value="" style="endArrow=classic;html=1;rounded=0;exitX=0;exitY=0.5;exitDx=0;exitDy=0;exitPerimeter=0;entryX=0.25;entryY=0;entryDx=0;entryDy=0;strokeColor=#80FF00;" parent="1" source="e-eenU64WSXm0HByO18V-66" target="e-eenU64WSXm0HByO18V-52" edge="1">
          <mxGeometry width="50" height="50" relative="1" as="geometry">
            <mxPoint x="361" y="686" as="sourcePoint" />
            <mxPoint x="411" y="636" as="targetPoint" />
            <Array as="points">
              <mxPoint x="294" y="651" />
            </Array>
          </mxGeometry>
        </mxCell>
        <mxCell id="e-eenU64WSXm0HByO18V-82" value="Preamble&lt;div&gt;2 bytes&lt;/div&gt;" style="rounded=0;whiteSpace=wrap;html=1;" parent="1" vertex="1">
          <mxGeometry x="40" y="931" width="100" height="50" as="geometry" />
        </mxCell>
        <mxCell id="e-eenU64WSXm0HByO18V-83" value="Msg ID&lt;div&gt;1 byte&lt;/div&gt;" style="rounded=0;whiteSpace=wrap;html=1;" parent="1" vertex="1">
          <mxGeometry x="140" y="931" width="50" height="50" as="geometry" />
        </mxCell>
        <mxCell id="e-eenU64WSXm0HByO18V-84" value="Measurement Data&lt;div&gt;8 bytes&lt;/div&gt;" style="rounded=0;whiteSpace=wrap;html=1;" parent="1" vertex="1">
          <mxGeometry x="190" y="931" width="400" height="50" as="geometry" />
        </mxCell>
        <mxCell id="e-eenU64WSXm0HByO18V-85" value="Postamble&lt;div&gt;1 byte&lt;/div&gt;" style="rounded=0;whiteSpace=wrap;html=1;" parent="1" vertex="1">
          <mxGeometry x="590" y="931" width="59" height="50" as="geometry" />
        </mxCell>
        <mxCell id="0TFI5ccN3jjJvBASkX7p-21" value="OBC" style="rounded=1;whiteSpace=wrap;html=1;" vertex="1" parent="1">
          <mxGeometry x="50" y="1270" width="60" height="290" as="geometry" />
        </mxCell>
        <mxCell id="0TFI5ccN3jjJvBASkX7p-22" value="" style="rounded=1;whiteSpace=wrap;html=1;" vertex="1" parent="1">
          <mxGeometry x="170" y="1270" width="440" height="290" as="geometry" />
        </mxCell>
        <mxCell id="0TFI5ccN3jjJvBASkX7p-23" value="FPGA" style="rounded=1;whiteSpace=wrap;html=1;" vertex="1" parent="1">
          <mxGeometry x="670" y="1270" width="80" height="290" as="geometry" />
        </mxCell>
        <mxCell id="0TFI5ccN3jjJvBASkX7p-24" value="MCU" style="text;strokeColor=none;align=center;fillColor=none;html=1;verticalAlign=middle;whiteSpace=wrap;rounded=0;" vertex="1" parent="1">
          <mxGeometry x="350" y="1280" width="60" height="30" as="geometry" />
        </mxCell>
        <mxCell id="0TFI5ccN3jjJvBASkX7p-25" value="PUS 8&amp;nbsp;&lt;div&gt;Task&lt;/div&gt;" style="rounded=1;whiteSpace=wrap;html=1;" vertex="1" parent="1">
          <mxGeometry x="400" y="1335" width="110" height="52.5" as="geometry" />
        </mxCell>
        <mxCell id="0TFI5ccN3jjJvBASkX7p-26" value="UART&amp;nbsp;&lt;div&gt;Controller 2&lt;/div&gt;" style="rounded=1;whiteSpace=wrap;html=1;" vertex="1" parent="1">
          <mxGeometry x="190" y="1315" width="60" height="203" as="geometry" />
        </mxCell>
        <mxCell id="0TFI5ccN3jjJvBASkX7p-27" value="UART&amp;nbsp;&lt;div&gt;Controller&amp;nbsp;&lt;/div&gt;&lt;div&gt;1&lt;/div&gt;" style="rounded=1;whiteSpace=wrap;html=1;" vertex="1" parent="1">
          <mxGeometry x="530" y="1315" width="60" height="84" as="geometry" />
        </mxCell>
        <mxCell id="0TFI5ccN3jjJvBASkX7p-28" value="UART_IN_OBC&lt;div&gt;Task&lt;/div&gt;" style="rounded=1;whiteSpace=wrap;html=1;" vertex="1" parent="1">
          <mxGeometry x="270" y="1335" width="110" height="52.5" as="geometry" />
        </mxCell>
        <mxCell id="0TFI5ccN3jjJvBASkX7p-29" value="" style="endArrow=classic;html=1;rounded=0;exitX=1;exitY=0.5;exitDx=0;exitDy=0;entryX=0;entryY=0.5;entryDx=0;entryDy=0;strokeColor=#FF0000;" edge="1" parent="1" source="0TFI5ccN3jjJvBASkX7p-28" target="0TFI5ccN3jjJvBASkX7p-25">
          <mxGeometry width="50" height="50" relative="1" as="geometry">
            <mxPoint x="290" y="1450" as="sourcePoint" />
            <mxPoint x="340" y="1400" as="targetPoint" />
          </mxGeometry>
        </mxCell>
        <mxCell id="0TFI5ccN3jjJvBASkX7p-32" value="" style="endArrow=classic;html=1;rounded=0;exitX=1;exitY=0.296;exitDx=0;exitDy=0;entryX=0.021;entryY=0.196;entryDx=0;entryDy=0;fillColor=#FF0000;strokeColor=#FF0000;exitPerimeter=0;entryPerimeter=0;" edge="1" parent="1" source="0TFI5ccN3jjJvBASkX7p-21" target="0TFI5ccN3jjJvBASkX7p-26">
          <mxGeometry width="50" height="50" relative="1" as="geometry">
            <mxPoint x="270" y="1460" as="sourcePoint" />
            <mxPoint x="320" y="1410" as="targetPoint" />
          </mxGeometry>
        </mxCell>
        <mxCell id="0TFI5ccN3jjJvBASkX7p-34" value="" style="endArrow=classic;html=1;rounded=0;exitX=1.029;exitY=0.231;exitDx=0;exitDy=0;entryX=0;entryY=0.5;entryDx=0;entryDy=0;fillColor=#FF0000;strokeColor=#FF0000;exitPerimeter=0;" edge="1" parent="1" source="0TFI5ccN3jjJvBASkX7p-26" target="0TFI5ccN3jjJvBASkX7p-28">
          <mxGeometry width="50" height="50" relative="1" as="geometry">
            <mxPoint x="130" y="1340" as="sourcePoint" />
            <mxPoint x="212" y="1340" as="targetPoint" />
          </mxGeometry>
        </mxCell>
        <mxCell id="0TFI5ccN3jjJvBASkX7p-35" value="" style="endArrow=classic;html=1;rounded=0;exitX=1;exitY=0.5;exitDx=0;exitDy=0;entryX=0;entryY=0.543;entryDx=0;entryDy=0;strokeColor=#FF0000;entryPerimeter=0;" edge="1" parent="1" source="0TFI5ccN3jjJvBASkX7p-25" target="0TFI5ccN3jjJvBASkX7p-27">
          <mxGeometry width="50" height="50" relative="1" as="geometry">
            <mxPoint x="390" y="1370" as="sourcePoint" />
            <mxPoint x="410" y="1370" as="targetPoint" />
          </mxGeometry>
        </mxCell>
        <mxCell id="0TFI5ccN3jjJvBASkX7p-36" value="" style="endArrow=classic;html=1;rounded=0;exitX=1.013;exitY=0.605;exitDx=0;exitDy=0;entryX=0.01;entryY=0.331;entryDx=0;entryDy=0;strokeColor=#FF0000;entryPerimeter=0;exitPerimeter=0;" edge="1" parent="1" source="0TFI5ccN3jjJvBASkX7p-27" target="0TFI5ccN3jjJvBASkX7p-23">
          <mxGeometry width="50" height="50" relative="1" as="geometry">
            <mxPoint x="510" y="1390" as="sourcePoint" />
            <mxPoint x="530" y="1390" as="targetPoint" />
          </mxGeometry>
        </mxCell>
        <mxCell id="0TFI5ccN3jjJvBASkX7p-41" value="" style="endArrow=classic;html=1;rounded=0;strokeColor=#80FF00;" edge="1" parent="1">
          <mxGeometry width="50" height="50" relative="1" as="geometry">
            <mxPoint x="335" y="1230" as="sourcePoint" />
            <mxPoint x="305" y="1230" as="targetPoint" />
          </mxGeometry>
        </mxCell>
        <mxCell id="0TFI5ccN3jjJvBASkX7p-42" value="" style="endArrow=classic;html=1;rounded=0;strokeColor=#FF0000;" edge="1" parent="1">
          <mxGeometry width="50" height="50" relative="1" as="geometry">
            <mxPoint x="465" y="1230" as="sourcePoint" />
            <mxPoint x="495" y="1230" as="targetPoint" />
          </mxGeometry>
        </mxCell>
        <mxCell id="0TFI5ccN3jjJvBASkX7p-43" value="FPGA -&amp;gt; MCU-&amp;gt; OBC" style="text;strokeColor=none;align=center;fillColor=none;html=1;verticalAlign=middle;whiteSpace=wrap;rounded=0;" vertex="1" parent="1">
          <mxGeometry x="250" y="1210" width="140" height="10" as="geometry" />
        </mxCell>
        <mxCell id="0TFI5ccN3jjJvBASkX7p-44" value="OBC-&amp;gt;MCU-&amp;gt;FPGA" style="text;strokeColor=none;align=center;fillColor=none;html=1;verticalAlign=middle;whiteSpace=wrap;rounded=0;" vertex="1" parent="1">
          <mxGeometry x="410" y="1210" width="140" height="10" as="geometry" />
        </mxCell>
        <mxCell id="0TFI5ccN3jjJvBASkX7p-45" value="FMC" style="rounded=1;whiteSpace=wrap;html=1;" vertex="1" parent="1">
          <mxGeometry x="523" y="1432" width="61" height="89" as="geometry" />
        </mxCell>
        <mxCell id="0TFI5ccN3jjJvBASkX7p-47" value="FIFO" style="rounded=1;whiteSpace=wrap;html=1;" vertex="1" parent="1">
          <mxGeometry x="686.75" y="1438.5" width="46.5" height="76" as="geometry" />
        </mxCell>
        <mxCell id="0TFI5ccN3jjJvBASkX7p-49" value="Sweep Bias&lt;div&gt;Buffer&lt;/div&gt;" style="shape=cylinder3;whiteSpace=wrap;html=1;boundedLbl=1;backgroundOutline=1;size=15;" vertex="1" parent="1">
          <mxGeometry x="425" y="1426.5" width="60" height="88" as="geometry" />
        </mxCell>
        <mxCell id="0TFI5ccN3jjJvBASkX7p-51" value="" style="endArrow=classic;html=1;rounded=0;entryX=0.995;entryY=0.566;entryDx=0;entryDy=0;exitX=0;exitY=0.5;exitDx=0;exitDy=0;entryPerimeter=0;strokeColor=#99FF33;" edge="1" parent="1" source="0TFI5ccN3jjJvBASkX7p-45" target="0TFI5ccN3jjJvBASkX7p-49">
          <mxGeometry width="50" height="50" relative="1" as="geometry">
            <mxPoint x="441" y="1516" as="sourcePoint" />
            <mxPoint x="391" y="1566" as="targetPoint" />
          </mxGeometry>
        </mxCell>
        <mxCell id="0TFI5ccN3jjJvBASkX7p-54" value="UART_OUT_OBC&lt;div&gt;Task&lt;/div&gt;" style="rounded=1;whiteSpace=wrap;html=1;" vertex="1" parent="1">
          <mxGeometry x="274" y="1444.25" width="110" height="52.5" as="geometry" />
        </mxCell>
        <mxCell id="0TFI5ccN3jjJvBASkX7p-55" value="" style="endArrow=classic;html=1;rounded=0;exitX=0;exitY=0.5;exitDx=0;exitDy=0;entryX=1;entryY=0.5;entryDx=0;entryDy=0;strokeColor=#99FF33;" edge="1" parent="1" source="0TFI5ccN3jjJvBASkX7p-47" target="0TFI5ccN3jjJvBASkX7p-45">
          <mxGeometry width="50" height="50" relative="1" as="geometry">
            <mxPoint x="359" y="1505" as="sourcePoint" />
            <mxPoint x="409" y="1455" as="targetPoint" />
          </mxGeometry>
        </mxCell>
        <mxCell id="0TFI5ccN3jjJvBASkX7p-56" value="" style="endArrow=classic;html=1;rounded=0;exitX=0;exitY=0.5;exitDx=0;exitDy=0;exitPerimeter=0;entryX=1;entryY=0.5;entryDx=0;entryDy=0;strokeColor=#99FF33;" edge="1" parent="1" source="0TFI5ccN3jjJvBASkX7p-49" target="0TFI5ccN3jjJvBASkX7p-54">
          <mxGeometry width="50" height="50" relative="1" as="geometry">
            <mxPoint x="359" y="1505" as="sourcePoint" />
            <mxPoint x="409" y="1455" as="targetPoint" />
          </mxGeometry>
        </mxCell>
        <mxCell id="0TFI5ccN3jjJvBASkX7p-57" value="" style="endArrow=classic;html=1;rounded=0;exitX=0;exitY=0.5;exitDx=0;exitDy=0;entryX=0.998;entryY=0.768;entryDx=0;entryDy=0;entryPerimeter=0;fillColor=#99FF33;strokeColor=#99FF33;" edge="1" parent="1" source="0TFI5ccN3jjJvBASkX7p-54" target="0TFI5ccN3jjJvBASkX7p-26">
          <mxGeometry width="50" height="50" relative="1" as="geometry">
            <mxPoint x="359" y="1505" as="sourcePoint" />
            <mxPoint x="409" y="1455" as="targetPoint" />
          </mxGeometry>
        </mxCell>
        <mxCell id="0TFI5ccN3jjJvBASkX7p-58" value="" style="endArrow=classic;html=1;rounded=0;exitX=0;exitY=0.75;exitDx=0;exitDy=0;entryX=0.99;entryY=0.681;entryDx=0;entryDy=0;entryPerimeter=0;fillColor=#99FF33;strokeColor=#99FF33;" edge="1" parent="1" source="0TFI5ccN3jjJvBASkX7p-26" target="0TFI5ccN3jjJvBASkX7p-21">
          <mxGeometry width="50" height="50" relative="1" as="geometry">
            <mxPoint x="359" y="1505" as="sourcePoint" />
            <mxPoint x="409" y="1455" as="targetPoint" />
          </mxGeometry>
        </mxCell>
      </root>
    </mxGraphModel>
  </diagram>
</mxfile>
